<svg width="10" height="15" viewBox="0 0 10 15" fill="none" xmlns="http://www.w3.org/2000/svg">
<path d="M6.66667 1.10419C6.66667 1.91994 6.8099 2.6719 7.09635 3.36005C7.38281 4.0482 7.79514 4.68166 8.33333 5.26044C8.87153 5.83921 9.28385 6.47268 9.57031 7.16083C9.85677 7.84898 10 8.60093 10 9.41669C10 9.89976 9.94141 10.3646 9.82422 10.8112C9.70703 11.2578 9.53776 11.6748 9.31641 12.0622C9.09505 12.4496 8.83463 12.805 8.53516 13.1286C8.23568 13.4522 7.89931 13.7256 7.52604 13.9489C7.15278 14.1722 6.75347 14.3477 6.32812 14.4753C5.90278 14.6029 5.46007 14.6667 5 14.6667C4.53993 14.6667 4.09722 14.6052 3.67188 14.4821C3.24653 14.3591 2.84939 14.1813 2.48047 13.9489C2.11155 13.7165 1.773 13.4431 1.46484 13.1286C1.15668 12.8141 0.896267 12.461 0.683594 12.069C0.47092 11.6771 0.303819 11.2578 0.182292 10.8112C0.0607639 10.3646 0 9.89976 0 9.41669C0 9.03387 0.0390625 8.6579 0.117188 8.28876C0.195312 7.91962 0.30816 7.56643 0.455729 7.22919C0.603299 6.89195 0.78559 6.57066 1.0026 6.26532C1.21962 5.95998 1.46484 5.68427 1.73828 5.43817C1.76866 5.61135 1.8099 5.78908 1.86198 5.97137C1.91406 6.15367 1.97483 6.33596 2.04427 6.51825C2.11372 6.70054 2.19618 6.87372 2.29167 7.03778C2.38715 7.20184 2.48698 7.35451 2.59115 7.49579C2.67795 7.60972 2.7908 7.66669 2.92969 7.66669C3.04688 7.66669 3.14453 7.62339 3.22266 7.5368C3.30078 7.45022 3.34201 7.3454 3.34635 7.22235C3.34635 7.17222 3.33984 7.12665 3.32682 7.08563C3.3138 7.04462 3.2921 7.0036 3.26172 6.96259C3.14019 6.77574 3.03385 6.59117 2.94271 6.40887C2.85156 6.22658 2.77127 6.03973 2.70182 5.84833C2.63238 5.65692 2.58247 5.45868 2.55208 5.2536C2.5217 5.04852 2.50434 4.83205 2.5 4.60419C2.5 4.06187 2.59766 3.55145 2.79297 3.07294C2.98828 2.59442 3.25738 2.17743 3.60026 1.82196C3.94314 1.46649 4.34028 1.18622 4.79167 0.98114C5.24306 0.776062 5.72917 0.671244 6.25 0.666687H6.66667V1.10419ZM5 13.7917C5.57726 13.7917 6.11762 13.6778 6.62109 13.4499C7.12457 13.222 7.56727 12.9099 7.94922 12.5134C8.33116 12.1169 8.62847 11.6543 8.84115 11.1257C9.05382 10.597 9.16233 10.0274 9.16667 9.41669C9.16667 8.72854 9.04514 8.08824 8.80208 7.49579C8.55903 6.90334 8.20747 6.36558 7.7474 5.88251C7.18316 5.2855 6.74045 4.62697 6.41927 3.90692C6.09809 3.18687 5.90712 2.40757 5.84635 1.56903C5.48611 1.61916 5.15408 1.73309 4.85026 1.91083C4.54644 2.08856 4.27951 2.31415 4.04948 2.58759C3.81944 2.86102 3.64366 3.16864 3.52214 3.51044C3.40061 3.85223 3.33767 4.21682 3.33333 4.60419C3.33333 4.95966 3.38325 5.28094 3.48307 5.56805C3.5829 5.85516 3.73047 6.14227 3.92578 6.42938C4.00825 6.54787 4.07118 6.67092 4.11458 6.79852C4.15799 6.92613 4.18186 7.0674 4.1862 7.22235C4.1862 7.40464 4.15365 7.57554 4.08854 7.73505C4.02344 7.89455 3.93229 8.03355 3.8151 8.15204C3.69792 8.27053 3.56554 8.36623 3.41797 8.43915C3.2704 8.51206 3.10764 8.54624 2.92969 8.54169C2.73003 8.54169 2.55425 8.50295 2.40234 8.42548C2.25043 8.348 2.11589 8.24318 1.9987 8.11102C1.88151 7.97886 1.77734 7.83075 1.6862 7.66669C1.59505 7.50262 1.50825 7.33856 1.42578 7.1745C1.22613 7.50718 1.07856 7.86493 0.983073 8.24774C0.887587 8.63055 0.837674 9.0202 0.833333 9.41669C0.833333 10.0228 0.94184 10.5902 1.15885 11.1188C1.37587 11.6475 1.67318 12.1123 2.05078 12.5134C2.42839 12.9144 2.86892 13.2266 3.3724 13.4499C3.87587 13.6732 4.4184 13.7871 5 13.7917Z" fill="#FCF6E0"/>
</svg>
