<svg width="14" height="14" viewBox="0 0 14 14" fill="none" xmlns="http://www.w3.org/2000/svg">
<path d="M6.84211 13.6842C10.5786 13.6842 13.6842 10.5851 13.6842 6.84211C13.6842 3.10565 10.5851 0 6.84869 0C6.49322 0 6.31892 0.214657 6.31892 0.563259V3.16604C6.31892 3.45454 6.51354 3.68923 6.80833 3.68923C7.1037 3.68923 7.30491 3.45454 7.30491 3.16604V1.16029C10.2566 1.39498 12.5371 3.83691 12.5371 6.84211C12.5402 7.59117 12.395 8.33345 12.11 9.02618C11.825 9.71891 11.4058 10.3484 10.8764 10.8784C10.347 11.4084 9.71805 11.8284 9.02567 12.1143C8.33328 12.4001 7.59118 12.5462 6.84211 12.544C3.67578 12.544 1.13367 10.0081 1.14026 6.84211C1.14684 5.43339 1.64999 4.15232 2.48858 3.16604C2.69637 2.90445 2.70982 2.58933 2.48858 2.35435C2.26706 2.11308 1.89155 2.13311 1.64999 2.43506C0.623649 3.62884 0 5.17179 0 6.84211C0 10.5851 3.09907 13.6842 6.84211 13.6842ZM7.91539 7.87503C8.44516 7.32494 8.33812 6.57364 7.70073 6.13116L4.15174 3.65574C3.81659 3.42105 3.46771 3.76994 3.7024 4.10509L6.17782 7.65379C6.62058 8.29118 7.37188 8.40509 7.91539 7.87503Z" fill="#FCF6E0"/>
</svg>
